<svg xmlns="http://www.w3.org/2000/svg" width="1200" height="760" viewBox="0 0 1200 760">
  <rect width="1200" height="760" fill="#F7F8FA"/>
  <rect x="80" y="40" width="1040" height="70" rx="16" fill="#FFFFFF" stroke="#DDE4E0"/>
  <text x="115" y="84" font-family="Arial" font-size="28" font-weight="700" fill="#17211D">Edit Dish</text>
  <rect x="80" y="135" width="1040" height="150" rx="18" fill="#FFFFFF" stroke="#DDE4E0"/>
  <circle cx="145" cy="210" r="34" fill="#DDF4E8"/>
  <text x="205" y="195" font-family="Arial" font-size="28" font-weight="700" fill="#17211D">Paneer Tikka ✓</text>
  <rect x="205" y="220" width="125" height="34" rx="17" fill="#F1F5F3"/>
  <text x="225" y="242" font-family="Arial" font-size="15" fill="#276749">Vegetarian</text>
  <rect x="345" y="220" width="85" height="34" rx="17" fill="#F1F5F3"/>
  <text x="367" y="242" font-family="Arial" font-size="15" fill="#276749">₹250</text>
  <text x="80" y="340" font-family="Arial" font-size="26" font-weight="700" fill="#17211D">Ingredients (4)</text>
  <text x="80" y="370" font-family="Arial" font-size="16" fill="#66736D">Edit all fields inline. Unit and brand may be left empty.</text>
  <rect x="900" y="322" width="220" height="52" rx="12" fill="#FFFFFF" stroke="#276749"/>
  <text x="955" y="355" font-family="Arial" font-size="17" font-weight="600" fill="#276749">+ Add Ingredient</text>
  <rect x="80" y="400" width="1040" height="180" rx="18" fill="#FFFFFF" stroke="#DDE4E0"/>
  <text x="110" y="440" font-family="Arial" font-size="20" font-weight="700" fill="#17211D">Ingredient 1</text>
  <text x="935" y="440" font-family="Arial" font-size="14" fill="#66736D">ing-1</text>
  <rect x="110" y="470" width="300" height="70" rx="12" fill="#FFFFFF" stroke="#DDE4E0"/>
  <text x="130" y="495" font-family="Arial" font-size="12" fill="#66736D">Ingredient name</text>
  <text x="130" y="525" font-family="Arial" font-size="17" fill="#17211D">Paneer</text>
  <rect x="430" y="470" width="180" height="70" rx="12" fill="#FFFFFF" stroke="#DDE4E0"/>
  <text x="450" y="495" font-family="Arial" font-size="12" fill="#66736D">Quantity</text>
  <text x="450" y="525" font-family="Arial" font-size="17" fill="#17211D">150</text>
  <rect x="630" y="470" width="160" height="70" rx="12" fill="#FFFFFF" stroke="#DDE4E0"/>
  <text x="650" y="495" font-family="Arial" font-size="12" fill="#66736D">Unit</text>
  <text x="650" y="525" font-family="Arial" font-size="17" fill="#17211D">g</text>
  <rect x="810" y="470" width="260" height="70" rx="12" fill="#FFFFFF" stroke="#DDE4E0"/>
  <text x="830" y="495" font-family="Arial" font-size="12" fill="#66736D">Brand</text>
  <text x="830" y="525" font-family="Arial" font-size="17" fill="#17211D">Amul</text>
  <rect x="80" y="640" width="1040" height="62" rx="12" fill="#276749"/>
  <text x="525" y="679" font-family="Arial" font-size="20" font-weight="700" fill="#FFFFFF">Save Changes</text>
</svg>
